<mxfile host="app.diagrams.net" modified="2022-10-30T18:08:14.246Z" agent="5.0 (Windows NT 10.0; Win64; x64) AppleWebKit/537.36 (KHTML, like Gecko) Chrome/107.0.0.0 Safari/537.36" etag="KB5RIaCBj789aCMdjAYf" version="20.5.1" type="github">
  <diagram id="jKeX0tfKD5QEASLIKKK5" name="Page-1">
    <mxGraphModel dx="2174" dy="555" grid="1" gridSize="11" guides="1" tooltips="1" connect="1" arrows="1" fold="1" page="1" pageScale="1" pageWidth="1654" pageHeight="1169" math="0" shadow="0">
      <root>
        <mxCell id="0" />
        <mxCell id="1" parent="0" />
        <mxCell id="wglcAmrx0K7Ho9iD54lg-29" value="dias_taller" style="ellipse;whiteSpace=wrap;html=1;" vertex="1" parent="1">
          <mxGeometry x="1001" y="415" width="120" height="80" as="geometry" />
        </mxCell>
        <mxCell id="2wdHjYyYVPSdpzyVpULY-2" value="MECANICO" style="rounded=1;whiteSpace=wrap;html=1;" parent="1" vertex="1">
          <mxGeometry x="44" y="384" width="120" height="60" as="geometry" />
        </mxCell>
        <mxCell id="2wdHjYyYVPSdpzyVpULY-16" value="TRABAJAR" style="rhombus;whiteSpace=wrap;html=1;" parent="1" vertex="1">
          <mxGeometry x="253" y="374" width="80" height="80" as="geometry" />
        </mxCell>
        <mxCell id="2wdHjYyYVPSdpzyVpULY-17" value="REGISTRAR" style="rhombus;whiteSpace=wrap;html=1;" parent="1" vertex="1">
          <mxGeometry x="627" y="374" width="80" height="80" as="geometry" />
        </mxCell>
        <mxCell id="2wdHjYyYVPSdpzyVpULY-24" value="" style="endArrow=none;html=1;rounded=0;entryX=1;entryY=0.5;entryDx=0;entryDy=0;startArrow=none;" parent="1" source="2wdHjYyYVPSdpzyVpULY-41" target="2wdHjYyYVPSdpzyVpULY-2" edge="1">
          <mxGeometry width="50" height="50" relative="1" as="geometry">
            <mxPoint x="115" y="528" as="sourcePoint" />
            <mxPoint x="115" y="455" as="targetPoint" />
          </mxGeometry>
        </mxCell>
        <mxCell id="2wdHjYyYVPSdpzyVpULY-25" value="" style="endArrow=none;html=1;rounded=0;exitX=0;exitY=0.5;exitDx=0;exitDy=0;startArrow=none;" parent="1" edge="1">
          <mxGeometry width="50" height="50" relative="1" as="geometry">
            <mxPoint x="361" y="414.5" as="sourcePoint" />
            <mxPoint x="330" y="414" as="targetPoint" />
          </mxGeometry>
        </mxCell>
        <mxCell id="2wdHjYyYVPSdpzyVpULY-26" value="" style="endArrow=none;html=1;rounded=0;startArrow=none;" parent="1" source="2wdHjYyYVPSdpzyVpULY-50" target="2wdHjYyYVPSdpzyVpULY-17" edge="1">
          <mxGeometry width="50" height="50" relative="1" as="geometry">
            <mxPoint x="539" y="414" as="sourcePoint" />
            <mxPoint x="341" y="425" as="targetPoint" />
          </mxGeometry>
        </mxCell>
        <mxCell id="2wdHjYyYVPSdpzyVpULY-27" value="" style="endArrow=none;html=1;rounded=0;entryX=0;entryY=0.5;entryDx=0;entryDy=0;startArrow=none;" parent="1" source="2wdHjYyYVPSdpzyVpULY-52" edge="1">
          <mxGeometry width="50" height="50" relative="1" as="geometry">
            <mxPoint x="704" y="414" as="sourcePoint" />
            <mxPoint x="770" y="414" as="targetPoint" />
          </mxGeometry>
        </mxCell>
        <mxCell id="2wdHjYyYVPSdpzyVpULY-41" value="(1,n)" style="text;html=1;resizable=0;autosize=1;align=center;verticalAlign=middle;points=[];fillColor=none;strokeColor=none;rounded=0;" parent="1" vertex="1">
          <mxGeometry x="183" y="398" width="55" height="33" as="geometry" />
        </mxCell>
        <mxCell id="2wdHjYyYVPSdpzyVpULY-42" value="" style="endArrow=none;html=1;rounded=0;entryX=1;entryY=0.5;entryDx=0;entryDy=0;" parent="1" source="2wdHjYyYVPSdpzyVpULY-16" target="2wdHjYyYVPSdpzyVpULY-41" edge="1">
          <mxGeometry width="50" height="50" relative="1" as="geometry">
            <mxPoint x="253" y="414" as="sourcePoint" />
            <mxPoint x="164" y="414" as="targetPoint" />
          </mxGeometry>
        </mxCell>
        <mxCell id="2wdHjYyYVPSdpzyVpULY-46" value="" style="endArrow=none;html=1;rounded=0;exitX=0;exitY=0.5;exitDx=0;exitDy=0;" parent="1" edge="1">
          <mxGeometry width="50" height="50" relative="1" as="geometry">
            <mxPoint x="418" y="414" as="sourcePoint" />
            <mxPoint x="405" y="414.1857142857143" as="targetPoint" />
          </mxGeometry>
        </mxCell>
        <mxCell id="2wdHjYyYVPSdpzyVpULY-50" value="(1,n)" style="text;html=1;resizable=0;autosize=1;align=center;verticalAlign=middle;points=[];fillColor=none;strokeColor=none;rounded=0;" parent="1" vertex="1">
          <mxGeometry x="543" y="398" width="55" height="33" as="geometry" />
        </mxCell>
        <mxCell id="2wdHjYyYVPSdpzyVpULY-51" value="" style="endArrow=none;html=1;rounded=0;" parent="1" target="2wdHjYyYVPSdpzyVpULY-50" edge="1">
          <mxGeometry width="50" height="50" relative="1" as="geometry">
            <mxPoint x="539" y="414" as="sourcePoint" />
            <mxPoint x="627" y="414" as="targetPoint" />
          </mxGeometry>
        </mxCell>
        <mxCell id="2wdHjYyYVPSdpzyVpULY-52" value="(1,n)" style="text;html=1;resizable=0;autosize=1;align=center;verticalAlign=middle;points=[];fillColor=none;strokeColor=none;rounded=0;" parent="1" vertex="1">
          <mxGeometry x="708" y="398" width="55" height="33" as="geometry" />
        </mxCell>
        <mxCell id="2wdHjYyYVPSdpzyVpULY-53" value="" style="endArrow=none;html=1;rounded=0;entryX=0;entryY=0.5;entryDx=0;entryDy=0;" parent="1" target="2wdHjYyYVPSdpzyVpULY-52" edge="1">
          <mxGeometry width="50" height="50" relative="1" as="geometry">
            <mxPoint x="704" y="414" as="sourcePoint" />
            <mxPoint x="770" y="414" as="targetPoint" />
          </mxGeometry>
        </mxCell>
        <mxCell id="2wdHjYyYVPSdpzyVpULY-54" value="N:M" style="text;html=1;resizable=0;autosize=1;align=center;verticalAlign=middle;points=[];fillColor=none;strokeColor=none;rounded=0;" parent="1" vertex="1">
          <mxGeometry x="645" y="348" width="44" height="33" as="geometry" />
        </mxCell>
        <mxCell id="2wdHjYyYVPSdpzyVpULY-65" value="N:M" style="text;html=1;resizable=0;autosize=1;align=center;verticalAlign=middle;points=[];fillColor=none;strokeColor=none;rounded=0;" parent="1" vertex="1">
          <mxGeometry x="271" y="454" width="44" height="33" as="geometry" />
        </mxCell>
        <mxCell id="wglcAmrx0K7Ho9iD54lg-4" value="" style="endArrow=none;html=1;rounded=0;startArrow=none;" edge="1" parent="1">
          <mxGeometry width="50" height="50" relative="1" as="geometry">
            <mxPoint x="484" y="449" as="sourcePoint" />
            <mxPoint x="483.17142857142835" y="594" as="targetPoint" />
          </mxGeometry>
        </mxCell>
        <mxCell id="wglcAmrx0K7Ho9iD54lg-6" value="REPARACIÓN" style="rounded=1;whiteSpace=wrap;html=1;" vertex="1" parent="1">
          <mxGeometry x="767" y="384.5" width="120" height="60" as="geometry" />
        </mxCell>
        <mxCell id="wglcAmrx0K7Ho9iD54lg-7" value="COCHE" style="rounded=1;whiteSpace=wrap;html=1;" vertex="1" parent="1">
          <mxGeometry x="418" y="384.5" width="120" height="60" as="geometry" />
        </mxCell>
        <mxCell id="wglcAmrx0K7Ho9iD54lg-8" value="SUV" style="shape=process;whiteSpace=wrap;html=1;backgroundOutline=1;" vertex="1" parent="1">
          <mxGeometry x="264" y="781" width="120" height="60" as="geometry" />
        </mxCell>
        <mxCell id="wglcAmrx0K7Ho9iD54lg-9" value="COUPE" style="shape=process;whiteSpace=wrap;html=1;backgroundOutline=1;" vertex="1" parent="1">
          <mxGeometry x="440" y="781" width="120" height="60" as="geometry" />
        </mxCell>
        <mxCell id="wglcAmrx0K7Ho9iD54lg-10" value="SEDAN" style="shape=process;whiteSpace=wrap;html=1;backgroundOutline=1;" vertex="1" parent="1">
          <mxGeometry x="587" y="781" width="120" height="60" as="geometry" />
        </mxCell>
        <mxCell id="wglcAmrx0K7Ho9iD54lg-11" value="&lt;u&gt;nº_ss_pk&lt;/u&gt;" style="ellipse;whiteSpace=wrap;html=1;" vertex="1" parent="1">
          <mxGeometry x="-187" y="268" width="120" height="80" as="geometry" />
        </mxCell>
        <mxCell id="wglcAmrx0K7Ho9iD54lg-12" value="nombre" style="ellipse;whiteSpace=wrap;html=1;" vertex="1" parent="1">
          <mxGeometry x="-176" y="381" width="120" height="80" as="geometry" />
        </mxCell>
        <mxCell id="wglcAmrx0K7Ho9iD54lg-13" value="salario" style="ellipse;whiteSpace=wrap;html=1;" vertex="1" parent="1">
          <mxGeometry x="-176" y="495" width="120" height="80" as="geometry" />
        </mxCell>
        <mxCell id="wglcAmrx0K7Ho9iD54lg-14" value="" style="endArrow=none;html=1;rounded=0;entryX=1;entryY=0.5;entryDx=0;entryDy=0;exitX=0;exitY=0.5;exitDx=0;exitDy=0;" edge="1" parent="1" source="2wdHjYyYVPSdpzyVpULY-2" target="wglcAmrx0K7Ho9iD54lg-11">
          <mxGeometry width="50" height="50" relative="1" as="geometry">
            <mxPoint x="66" y="391" as="sourcePoint" />
            <mxPoint x="116" y="341" as="targetPoint" />
          </mxGeometry>
        </mxCell>
        <mxCell id="wglcAmrx0K7Ho9iD54lg-15" value="" style="endArrow=none;html=1;rounded=0;entryX=1;entryY=0.5;entryDx=0;entryDy=0;" edge="1" parent="1" target="wglcAmrx0K7Ho9iD54lg-12">
          <mxGeometry width="50" height="50" relative="1" as="geometry">
            <mxPoint x="44" y="418" as="sourcePoint" />
            <mxPoint x="-56" y="319" as="targetPoint" />
          </mxGeometry>
        </mxCell>
        <mxCell id="wglcAmrx0K7Ho9iD54lg-16" value="" style="endArrow=none;html=1;rounded=0;entryX=1;entryY=0.5;entryDx=0;entryDy=0;exitX=0;exitY=0.5;exitDx=0;exitDy=0;" edge="1" parent="1" source="2wdHjYyYVPSdpzyVpULY-2" target="wglcAmrx0K7Ho9iD54lg-13">
          <mxGeometry width="50" height="50" relative="1" as="geometry">
            <mxPoint x="55" y="429" as="sourcePoint" />
            <mxPoint x="-45" y="432" as="targetPoint" />
          </mxGeometry>
        </mxCell>
        <mxCell id="wglcAmrx0K7Ho9iD54lg-17" value="&lt;u&gt;matricula_pk&lt;/u&gt;" style="ellipse;whiteSpace=wrap;html=1;" vertex="1" parent="1">
          <mxGeometry x="285" y="88" width="120" height="80" as="geometry" />
        </mxCell>
        <mxCell id="wglcAmrx0K7Ho9iD54lg-19" value="" style="ellipse;whiteSpace=wrap;html=1;" vertex="1" parent="1">
          <mxGeometry x="593" y="88" width="120" height="80" as="geometry" />
        </mxCell>
        <mxCell id="wglcAmrx0K7Ho9iD54lg-21" style="edgeStyle=orthogonalEdgeStyle;rounded=0;orthogonalLoop=1;jettySize=auto;html=1;exitX=0.5;exitY=1;exitDx=0;exitDy=0;" edge="1" parent="1">
          <mxGeometry relative="1" as="geometry">
            <mxPoint x="511" y="168" as="sourcePoint" />
            <mxPoint x="511" y="168" as="targetPoint" />
          </mxGeometry>
        </mxCell>
        <mxCell id="wglcAmrx0K7Ho9iD54lg-22" value="colores" style="ellipse;whiteSpace=wrap;html=1;" vertex="1" parent="1">
          <mxGeometry x="598" y="93.5" width="110" height="69" as="geometry" />
        </mxCell>
        <mxCell id="wglcAmrx0K7Ho9iD54lg-24" value="" style="endArrow=none;html=1;rounded=0;entryX=0.5;entryY=1;entryDx=0;entryDy=0;exitX=0.5;exitY=0;exitDx=0;exitDy=0;" edge="1" parent="1" source="wglcAmrx0K7Ho9iD54lg-7" target="wglcAmrx0K7Ho9iD54lg-17">
          <mxGeometry width="50" height="50" relative="1" as="geometry">
            <mxPoint x="451" y="391" as="sourcePoint" />
            <mxPoint x="501" y="341" as="targetPoint" />
          </mxGeometry>
        </mxCell>
        <mxCell id="wglcAmrx0K7Ho9iD54lg-26" value="" style="endArrow=none;html=1;rounded=0;entryX=0.5;entryY=1;entryDx=0;entryDy=0;exitX=0.5;exitY=0;exitDx=0;exitDy=0;" edge="1" parent="1" source="wglcAmrx0K7Ho9iD54lg-7" target="wglcAmrx0K7Ho9iD54lg-22">
          <mxGeometry width="50" height="50" relative="1" as="geometry">
            <mxPoint x="489" y="395.5" as="sourcePoint" />
            <mxPoint x="522" y="173.5" as="targetPoint" />
          </mxGeometry>
        </mxCell>
        <mxCell id="wglcAmrx0K7Ho9iD54lg-27" value="&lt;u&gt;fecha_in_pk&lt;/u&gt;" style="ellipse;whiteSpace=wrap;html=1;" vertex="1" parent="1">
          <mxGeometry x="1001" y="220" width="120" height="80" as="geometry" />
        </mxCell>
        <mxCell id="wglcAmrx0K7Ho9iD54lg-28" value="fecha_out" style="ellipse;whiteSpace=wrap;html=1;" vertex="1" parent="1">
          <mxGeometry x="1001" y="324.5" width="120" height="80" as="geometry" />
        </mxCell>
        <mxCell id="wglcAmrx0K7Ho9iD54lg-30" value="precio_total" style="ellipse;whiteSpace=wrap;html=1;dashed=1;" vertex="1" parent="1">
          <mxGeometry x="1001" y="505" width="120" height="80" as="geometry" />
        </mxCell>
        <mxCell id="wglcAmrx0K7Ho9iD54lg-31" value="" style="endArrow=none;html=1;rounded=0;entryX=0.028;entryY=0.655;entryDx=0;entryDy=0;entryPerimeter=0;exitX=1;exitY=0.5;exitDx=0;exitDy=0;" edge="1" parent="1" source="wglcAmrx0K7Ho9iD54lg-6" target="wglcAmrx0K7Ho9iD54lg-27">
          <mxGeometry width="50" height="50" relative="1" as="geometry">
            <mxPoint x="847" y="490" as="sourcePoint" />
            <mxPoint x="897" y="440" as="targetPoint" />
          </mxGeometry>
        </mxCell>
        <mxCell id="wglcAmrx0K7Ho9iD54lg-32" value="" style="endArrow=none;html=1;rounded=0;entryX=0;entryY=0.5;entryDx=0;entryDy=0;exitX=1;exitY=0.5;exitDx=0;exitDy=0;" edge="1" parent="1" source="wglcAmrx0K7Ho9iD54lg-6" target="wglcAmrx0K7Ho9iD54lg-28">
          <mxGeometry width="50" height="50" relative="1" as="geometry">
            <mxPoint x="898" y="425.5" as="sourcePoint" />
            <mxPoint x="1015.3600000000001" y="283.4" as="targetPoint" />
          </mxGeometry>
        </mxCell>
        <mxCell id="wglcAmrx0K7Ho9iD54lg-33" value="" style="endArrow=none;html=1;rounded=0;entryX=0;entryY=0.5;entryDx=0;entryDy=0;exitX=1;exitY=0.5;exitDx=0;exitDy=0;" edge="1" parent="1" source="wglcAmrx0K7Ho9iD54lg-6" target="wglcAmrx0K7Ho9iD54lg-29">
          <mxGeometry width="50" height="50" relative="1" as="geometry">
            <mxPoint x="891" y="407" as="sourcePoint" />
            <mxPoint x="1012" y="375.5" as="targetPoint" />
          </mxGeometry>
        </mxCell>
        <mxCell id="wglcAmrx0K7Ho9iD54lg-34" value="" style="endArrow=none;html=1;rounded=0;entryX=0;entryY=0.5;entryDx=0;entryDy=0;exitX=1;exitY=0.5;exitDx=0;exitDy=0;" edge="1" parent="1" source="wglcAmrx0K7Ho9iD54lg-6" target="wglcAmrx0K7Ho9iD54lg-30">
          <mxGeometry width="50" height="50" relative="1" as="geometry">
            <mxPoint x="880" y="407" as="sourcePoint" />
            <mxPoint x="1012" y="466" as="targetPoint" />
          </mxGeometry>
        </mxCell>
        <mxCell id="wglcAmrx0K7Ho9iD54lg-35" value="potencia" style="ellipse;whiteSpace=wrap;html=1;" vertex="1" parent="1">
          <mxGeometry x="252" y="935" width="120" height="80" as="geometry" />
        </mxCell>
        <mxCell id="wglcAmrx0K7Ho9iD54lg-36" value="nº_puertas" style="ellipse;whiteSpace=wrap;html=1;" vertex="1" parent="1">
          <mxGeometry x="429" y="935" width="120" height="80" as="geometry" />
        </mxCell>
        <mxCell id="wglcAmrx0K7Ho9iD54lg-37" value="litros_cap_dep" style="ellipse;whiteSpace=wrap;html=1;" vertex="1" parent="1">
          <mxGeometry x="587" y="935" width="120" height="80" as="geometry" />
        </mxCell>
        <mxCell id="wglcAmrx0K7Ho9iD54lg-38" value="" style="endArrow=none;html=1;rounded=0;exitX=0.5;exitY=0;exitDx=0;exitDy=0;entryX=0.5;entryY=1;entryDx=0;entryDy=0;" edge="1" parent="1" source="wglcAmrx0K7Ho9iD54lg-36" target="wglcAmrx0K7Ho9iD54lg-9">
          <mxGeometry width="50" height="50" relative="1" as="geometry">
            <mxPoint x="462" y="699" as="sourcePoint" />
            <mxPoint x="484" y="649" as="targetPoint" />
          </mxGeometry>
        </mxCell>
        <mxCell id="wglcAmrx0K7Ho9iD54lg-39" value="" style="endArrow=none;html=1;rounded=0;entryX=0.5;entryY=1;entryDx=0;entryDy=0;" edge="1" parent="1" source="wglcAmrx0K7Ho9iD54lg-37" target="wglcAmrx0K7Ho9iD54lg-10">
          <mxGeometry width="50" height="50" relative="1" as="geometry">
            <mxPoint x="489" y="715" as="sourcePoint" />
            <mxPoint x="495" y="660" as="targetPoint" />
          </mxGeometry>
        </mxCell>
        <mxCell id="wglcAmrx0K7Ho9iD54lg-40" value="" style="endArrow=none;html=1;rounded=0;entryX=0.5;entryY=1;entryDx=0;entryDy=0;exitX=0.5;exitY=0;exitDx=0;exitDy=0;" edge="1" parent="1" source="wglcAmrx0K7Ho9iD54lg-35" target="wglcAmrx0K7Ho9iD54lg-8">
          <mxGeometry width="50" height="50" relative="1" as="geometry">
            <mxPoint x="661.5777339278029" y="715.0326098087462" as="sourcePoint" />
            <mxPoint x="658" y="656" as="targetPoint" />
          </mxGeometry>
        </mxCell>
        <mxCell id="wglcAmrx0K7Ho9iD54lg-41" value="horas_trabajo" style="ellipse;whiteSpace=wrap;html=1;" vertex="1" parent="1">
          <mxGeometry x="164" y="231" width="88" height="58" as="geometry" />
        </mxCell>
        <mxCell id="wglcAmrx0K7Ho9iD54lg-42" value="" style="endArrow=none;html=1;rounded=0;entryX=0.5;entryY=1;entryDx=0;entryDy=0;exitX=0.5;exitY=0;exitDx=0;exitDy=0;" edge="1" parent="1" source="2wdHjYyYVPSdpzyVpULY-16" target="wglcAmrx0K7Ho9iD54lg-41">
          <mxGeometry width="50" height="50" relative="1" as="geometry">
            <mxPoint x="242" y="391" as="sourcePoint" />
            <mxPoint x="292" y="341" as="targetPoint" />
          </mxGeometry>
        </mxCell>
        <mxCell id="wglcAmrx0K7Ho9iD54lg-46" value="(1,n)" style="text;html=1;align=center;verticalAlign=middle;resizable=0;points=[];autosize=1;strokeColor=none;fillColor=none;" vertex="1" parent="1">
          <mxGeometry x="356" y="401" width="55" height="33" as="geometry" />
        </mxCell>
        <mxCell id="wglcAmrx0K7Ho9iD54lg-51" value="" style="endArrow=none;html=1;rounded=0;entryX=0.5;entryY=1;entryDx=0;entryDy=0;exitX=0.5;exitY=0;exitDx=0;exitDy=0;" edge="1" parent="1" source="wglcAmrx0K7Ho9iD54lg-8">
          <mxGeometry width="50" height="50" relative="1" as="geometry">
            <mxPoint x="407" y="633" as="sourcePoint" />
            <mxPoint x="483" y="654" as="targetPoint" />
          </mxGeometry>
        </mxCell>
        <mxCell id="wglcAmrx0K7Ho9iD54lg-52" value="" style="ellipse;whiteSpace=wrap;html=1;" vertex="1" parent="1">
          <mxGeometry x="429" y="93.5" width="120" height="80" as="geometry" />
        </mxCell>
        <mxCell id="wglcAmrx0K7Ho9iD54lg-53" value="marca" style="ellipse;whiteSpace=wrap;html=1;" vertex="1" parent="1">
          <mxGeometry x="439" y="99" width="99" height="69" as="geometry" />
        </mxCell>
        <mxCell id="wglcAmrx0K7Ho9iD54lg-54" value="" style="endArrow=none;html=1;rounded=0;" edge="1" parent="1" source="wglcAmrx0K7Ho9iD54lg-7">
          <mxGeometry width="50" height="50" relative="1" as="geometry">
            <mxPoint x="495" y="424" as="sourcePoint" />
            <mxPoint x="484" y="176" as="targetPoint" />
          </mxGeometry>
        </mxCell>
        <mxCell id="wglcAmrx0K7Ho9iD54lg-55" value="" style="endArrow=none;html=1;rounded=0;exitX=0.5;exitY=0;exitDx=0;exitDy=0;" edge="1" parent="1" source="wglcAmrx0K7Ho9iD54lg-9">
          <mxGeometry width="50" height="50" relative="1" as="geometry">
            <mxPoint x="462" y="721" as="sourcePoint" />
            <mxPoint x="484" y="649" as="targetPoint" />
          </mxGeometry>
        </mxCell>
        <mxCell id="wglcAmrx0K7Ho9iD54lg-56" value="" style="endArrow=none;html=1;rounded=0;exitX=0.5;exitY=0;exitDx=0;exitDy=0;" edge="1" parent="1" source="wglcAmrx0K7Ho9iD54lg-10">
          <mxGeometry width="50" height="50" relative="1" as="geometry">
            <mxPoint x="462" y="721" as="sourcePoint" />
            <mxPoint x="484" y="649" as="targetPoint" />
          </mxGeometry>
        </mxCell>
        <mxCell id="wglcAmrx0K7Ho9iD54lg-57" value="ES UN" style="rhombus;whiteSpace=wrap;html=1;dashed=1;" vertex="1" parent="1">
          <mxGeometry x="440" y="575" width="88.5" height="85" as="geometry" />
        </mxCell>
        <mxCell id="wglcAmrx0K7Ho9iD54lg-58" value="(1,1)" style="text;html=1;align=center;verticalAlign=middle;resizable=0;points=[];autosize=1;strokeColor=none;fillColor=none;" vertex="1" parent="1">
          <mxGeometry x="433" y="456" width="55" height="33" as="geometry" />
        </mxCell>
        <mxCell id="wglcAmrx0K7Ho9iD54lg-59" value="(0,1)" style="text;html=1;align=center;verticalAlign=middle;resizable=0;points=[];autosize=1;strokeColor=none;fillColor=none;" vertex="1" parent="1">
          <mxGeometry x="307" y="731" width="55" height="33" as="geometry" />
        </mxCell>
        <mxCell id="wglcAmrx0K7Ho9iD54lg-60" value="(0,1)" style="text;html=1;align=center;verticalAlign=middle;resizable=0;points=[];autosize=1;strokeColor=none;fillColor=none;" vertex="1" parent="1">
          <mxGeometry x="444" y="731" width="55" height="33" as="geometry" />
        </mxCell>
        <mxCell id="wglcAmrx0K7Ho9iD54lg-61" value="(0,1)" style="text;html=1;align=center;verticalAlign=middle;resizable=0;points=[];autosize=1;strokeColor=none;fillColor=none;" vertex="1" parent="1">
          <mxGeometry x="620" y="742" width="55" height="33" as="geometry" />
        </mxCell>
      </root>
    </mxGraphModel>
  </diagram>
</mxfile>
